:version 1.10
:name ASF
:units
  mass 1
  length 1
  angle deg
:documentation
  ASF file generated by Kaydara
:root
  axis xyz
  order  tx ty tz rx ry rz
  position 0 0 0
  orientation 0 0 0
:bonedata
  begin
    id 1
    name lfemurDummy
    direction 0.61522 -0.761478 0.204097
    length 5.68318
    axis 0 -0 0 xyz
  end
  begin
    id 2
    name lfemur
    direction 0.34202 -0.939693 -5.84747e-008
    length 16.9147
    axis 0 -0 20 xyz
    dof rx ry rz
    limits( -inf , inf )
( -inf , inf )
( -inf , inf )

  end
  begin
    id 3
    name ltibia
    direction 0.34202 -0.939693 1.20839e-009
    length 18.0532
    axis 0 -0 20 xyz
    dof rz ry rx
    limits( -inf , inf )
( -inf , inf )
( -inf , inf )

  end
  begin
    id 4
    name lfoot
    direction 0.0841971 -0.23133 0.969225
    length 5.23822
    axis -90 7.62852e-016 20 xyz
    dof ry rx rz
    limits( -inf , inf )
( -inf , inf )
( -inf , inf )

  end
  begin
    id 5
    name ltoes
    direction 0 0 0
    length 0
    axis 0 0 0 xyz
    dof rz ry rx
    limits( -inf , inf )
( -inf , inf )
( -inf , inf )

  end
  begin
    id 6
    name rfemurDummy
    direction -0.625247 -0.75382 0.202044
    length 5.74091
    axis 0 -0 0 xyz
  end
  begin
    id 7
    name rfemur
    direction -0.34202 -0.939693 -1.47013e-008
    length 16.4922
    axis 0 -0 -20 xyz
    dof rx ry rz
    limits( -inf , inf )
( -inf , inf )
( -inf , inf )

  end
  begin
    id 8
    name rtibia
    direction -0.34202 -0.939693 -7.74345e-010
    length 18.2421
    axis 0 -0 -20 xyz
    dof rz ry rx
    limits( -inf , inf )
( -inf , inf )
( -inf , inf )

  end
  begin
    id 9
    name rfoot
    direction -0.124331 -0.341598 0.931586
    length 5.45787
    axis -90 -7.62852e-016 -20 xyz
    dof ry rx rz
    limits( -inf , inf )
( -inf , inf )
( -inf , inf )

  end
  begin
    id 10
    name rtoes
    direction 0 0 0
    length 0
    axis 0 0 0 xyz
    dof rz ry rx
    limits( -inf , inf )
( -inf , inf )
( -inf , inf )

  end
  begin
    id 11
    name lowerbackDummy
    direction 0 0 0
    length 0
    axis 0 -0 0 xyz
  end
  begin
    id 12
    name lowerback
    direction -0.0218484 0.994884 -0.0986304
    length 4.45607
    axis 0 -0 0 xyz
    dof rx ry rz
    limits( -inf , inf )
( -inf , inf )
( -inf , inf )

  end
  begin
    id 13
    name upperback
    direction -0.00973057 0.999717 -0.0217111
    length 4.47449
    axis 0 -0 0 xyz
    dof rx ry rz
    limits( -inf , inf )
( -inf , inf )
( -inf , inf )

  end
  begin
    id 14
    name thorax
    direction -0.000928171 0.999699 0.0245198
    length 4.50973
    axis 0 -0 0 xyz
    dof rx ry rz
    limits( -inf , inf )
( -inf , inf )
( -inf , inf )

  end
  begin
    id 15
    name rclavicle
    direction -0.9009 0.425937 -0.0834055
    length 7.28587
    axis 0 -0 0 xyz
    dof rx ry rz
    limits( -inf , inf )
( -inf , inf )
( -inf , inf )

  end
  begin
    id 16
    name rhumerus
    direction -1 -2.23604e-007 -1.42637e-007
    length 13.5704
    axis 180 30 90 xyz
    dof rx ry rz
    limits( -inf , inf )
( -inf , inf )
( -inf , inf )

  end
  begin
    id 17
    name rradius
    direction -1 5.68281e-008 -4.4952e-007
    length 8.06782
    axis 180 30 90 xyz
    dof rz ry rx
    limits( -inf , inf )
( -inf , inf )
( -inf , inf )

  end
  begin
    id 18
    name rwrist
    direction -1 1.51393e-007 1.38143e-007
    length 4.03391
    axis -90 -90 0 xyz
    dof rz rx ry
    limits( -inf , inf )
( -inf , inf )
( -inf , inf )

  end
  begin
    id 19
    name rthumb
    direction 0 0 0
    length 0
    axis 0 0 0 xyz
    dof ry rx rz
    limits( -inf , inf )
( -inf , inf )
( -inf , inf )

  end
  begin
    id 20
    name rhand
    direction -1 -3.34077e-007 -5.59631e-007
    length 1.29744
    axis -90 -90 0 xyz
    dof ry rx rz
    limits( -inf , inf )
( -inf , inf )
( -inf , inf )

  end
  begin
    id 21
    name rfingers
    direction 0 0 0
    length 0
    axis 0 0 0 xyz
    dof rz ry rx
    limits( -inf , inf )
( -inf , inf )
( -inf , inf )

  end
  begin
    id 22
    name lclavicle
    direction 0.940017 0.332249 -0.0773232
    length 8.29589
    axis 0 -0 0 xyz
    dof rx ry rz
    limits( -inf , inf )
( -inf , inf )
( -inf , inf )

  end
  begin
    id 23
    name lhumerus
    direction 1 7.41158e-008 -1.44768e-008
    length 12.0042
    axis 180 -30 -90 xyz
    dof rx ry rz
    limits( -inf , inf )
( -inf , inf )
( -inf , inf )

  end
  begin
    id 24
    name lradius
    direction 1 -1.32972e-007 3.10821e-007
    length 8.1902
    axis 180 -30 -90 xyz
    dof rz ry rx
    limits( -inf , inf )
( -inf , inf )
( -inf , inf )

  end
  begin
    id 25
    name lwrist
    direction 1 3.08957e-007 4.01394e-007
    length 4.09509
    axis -90 90 0 xyz
    dof rz rx ry
    limits( -inf , inf )
( -inf , inf )
( -inf , inf )

  end
  begin
    id 26
    name lthumb
    direction 0 0 0
    length 0
    axis 0 0 0 xyz
    dof ry rx rz
    limits( -inf , inf )
( -inf , inf )
( -inf , inf )

  end
  begin
    id 27
    name lhand
    direction 1 -1.64125e-007 -6.99514e-007
    length 1.37229
    axis -90 90 0 xyz
    dof ry rx rz
    limits( -inf , inf )
( -inf , inf )
( -inf , inf )

  end
  begin
    id 28
    name lfingers
    direction 0 0 0
    length 0
    axis 0 0 0 xyz
    dof rz ry rx
    limits( -inf , inf )
( -inf , inf )
( -inf , inf )

  end
  begin
    id 29
    name lowerneck
    direction -0.030798 0.998024 0.0547665
    length 3.93918
    axis 0 -0 0 xyz
    dof rx ry rz
    limits( -inf , inf )
( -inf , inf )
( -inf , inf )

  end
  begin
    id 30
    name upperneck
    direction 0.0531588 0.996611 -0.0627736
    length 3.95491
    axis 0 -0 0 xyz
    dof rx ry rz
    limits( -inf , inf )
( -inf , inf )
( -inf , inf )

  end
  begin
    id 31
    name head
    direction 0 0 0
    length 0
    axis 0 0 0 xyz
    dof rx ry rz
    limits( -inf , inf )
( -inf , inf )
( -inf , inf )

  end
:hierarchy
  begin
    root lfemurDummy rfemurDummy lowerbackDummy
    lfemurDummy lfemur
    lfemur ltibia
    ltibia lfoot
    lfoot ltoes
    rfemurDummy rfemur
    rfemur rtibia
    rtibia rfoot
    rfoot rtoes
    lowerbackDummy lowerback
    lowerback upperback
    upperback thorax
    thorax rclavicle lclavicle lowerneck
    rclavicle rhumerus
    rhumerus rradius
    rradius rwrist
    rwrist rthumb rhand
    rhand rfingers
    lclavicle lhumerus
    lhumerus lradius
    lradius lwrist
    lwrist lthumb lhand
    lhand lfingers
    lowerneck upperneck
    upperneck head
  end

:SAMPLES-PER-SECOND 30
:FULLY-SPECIFIED
:DEGREES
100
root  -3.419822408 35.14422319 8.499355767 136.1640015 -71.27700043 -141.0029907
lowerback  16.14369965 3.111360073 -5.074840069
upperback  5.922229767 2.767770052 -2.174350023
thorax  -2.868839979 1.15091002 0.07539430261
lowerneck  3.377540112 15.42679977 -2.257509947
upperneck  8.433799744 20.0340004 4.770669937
head  1.379860044 9.874219894 1.749340057
lclavicle  0 -9.442270133e-015 7.951389973e-016
lhumerus  8.626170158 3.584909916 63.69499969
lradius  1.610012286e-031 -3.142722463e-031 117.1259995
lwrist  -7.062250077e-031 1.059337512e-030 76.83889771
lhand  -1.496451383e-031 -27.76390076 20.11240005
lfingers  90 7.125020027 -90
lthumb  89.89689403 5.08795885 91.16245106
rclavicle  0 -9.442270133e-015 7.951389973e-016
rhumerus  -26.00569916 29.75589943 -70.42230225
rradius  1.3861793e-031 3.247668546e-031 66.88610077
rwrist  7.062250077e-031 8.827812596e-031 -54.9109993
rhand  -7.920061211e-032 -33.2840004 9.303460121
rfingers  -90 -7.125020027 -90
rthumb  -92.93752616 -24.25625642 -97.11982154
rfemur  -8.024259567 22.66160011 4.047200203
rtibia  -0 0 46.93970108
rfoot  -0 -14.09389973 11.03380013
rtoes  5.373923086 19.29304026 -105.8922705
lfemur  -32.90439987 -2.586689949 10.32800007
ltibia  -0 0 68.18060303
lfoot  4.759233468e-032 -21.96069908 1.404960036
ltoes  -4.250644065 -19.5611806 -102.515957
101
root  -3.359688736 35.22200096 8.472489184 133.6920166 -72.78700256 -138.0209961
lowerback  15.79640007 2.75109005 -4.980120182
upperback  5.871630192 2.391269922 -1.684010029
thorax  -2.740590096 0.9769260287 0.619781971
lowerneck  4.012889862 15.13860035 -2.34645009
upperneck  8.023500443 19.65169907 4.633430004
head  1.162879944 9.677370071 1.647819996
lclavicle  0 -9.442270133e-015 7.951389973e-016
lhumerus  5.431200027 2.768450022 67.01139832
lradius  1.642615737e-031 -3.125805109e-031 117.7220001
lwrist  -7.062250077e-031 3.531125038e-031 76.38459778
lhand  -1.496451383e-031 -27.76390076 20.11240005
lfingers  90 7.125020027 -90
lthumb  89.89689403 5.08795885 91.16245106
rclavicle  0 -9.442270133e-015 7.951389973e-016
rhumerus  -25.49679947 28.61989975 -71.78730011
rradius  1.519170316e-031 3.187626953e-031 64.51830292
rwrist  1.059337512e-030 5.296687558e-031 -55.65520096
rhand  -7.920061211e-032 -33.2840004 9.303460121
rfingers  -90 -7.125020027 -90
rthumb  -92.93752616 -24.25625642 -97.11982154
rfemur  -6.826290131 21.32620049 3.626029968
rtibia  -0 0 45.27249908
rfoot  -0 -14.10820007 11.5298996
rtoes  5.373923086 19.29304026 -105.8922705
lfemur  -33.91859818 -3.031640053 10.15639973
ltibia  -0 0 67.24939728
lfoot  5.038751786e-032 -21.44930077 -0.2892009914
ltoes  -4.250644065 -19.5611806 -102.515957
102
root  -3.297022196 35.32888758 8.443555306 129.6799927 -74.23200226 -133.6439819
lowerback  15.70240021 2.524080038 -4.413760185
upperback  5.85586977 2.228660107 -1.235640049
thorax  -2.697989941 0.9092159867 0.8052719831
lowerneck  4.47040987 14.57689953 -2.117609978
upperneck  7.85228014 18.9178009 4.260849953
head  1.114770055 9.312259674 1.48119998
lclavicle  0 -9.442270133e-015 7.951389973e-016
lhumerus  2.4693501 1.806609988 70.58809662
lradius  1.664506497e-031 -3.114203294e-031 118.1240005
lwrist  -3.531125038e-031 7.062250077e-031 76.28839874
lhand  -1.496451383e-031 -27.76390076 20.11240005
lfingers  90 7.125020027 -90
lthumb  89.89689403 5.08795885 91.16245106
rclavicle  0 -9.442270133e-015 7.951389973e-016
rhumerus  -25.04770088 26.83530045 -73.22329712
rradius  1.648379544e-031 3.122769431e-031 62.17229843
rwrist  7.062250077e-031 8.827812596e-031 -56.18730164
rhand  -7.920061211e-032 -33.2840004 9.303460121
rfingers  -90 -7.125020027 -90
rthumb  -92.93752616 -24.25625642 -97.11982154
rfemur  -5.308489799 19.88380051 3.494669914
rtibia  -0 0 43.43859863
rfoot  -0 -13.62370014 11.99820042
rtoes  5.373923086 19.29304026 -105.8922705
lfemur  -34.71760178 -3.482310057 10.03450012
ltibia  -0 0 66.12660217
lfoot  7.082805854e-032 -20.80750084 -1.816439986
ltoes  -4.250644065 -19.5611806 -102.515957
103
root  -3.211600011 35.48222339 8.425799693 124.0689697 -75.4280014 -127.7490234
lowerback  15.82219982 2.521330118 -3.315500021
upperback  5.895969868 2.422899961 -0.6766949892
thorax  -2.710649967 1.017699957 0.7360489964
lowerneck  4.489059925 13.71380043 -2.253710032
upperneck  8.038379669 17.77070045 4.041419983
head  1.210160017 8.738490105 1.469400048
lclavicle  0 -9.442270133e-015 7.951389973e-016
lhumerus  -0.07228119671 0.4839639962 74.48470306
lradius  1.672165174e-031 -3.110097694e-031 118.2649994
lwrist  -7.062250077e-031 3.531125038e-031 76.40239716
lhand  -1.496451383e-031 -27.76390076 20.11240005
lfingers  90 7.125020027 -90
lthumb  89.89689403 5.08795885 91.16245106
rclavicle  0 -9.442270133e-015 7.951389973e-016
rhumerus  -24.59799957 24.23880005 -74.27480316
rradius  1.763069442e-031 3.059482011e-031 60.04669952
rwrist  7.062250077e-031 5.296687558e-031 -56.69910049
rhand  -7.920061211e-032 -33.2840004 9.303460121
rfingers  -90 -7.125020027 -90
rthumb  -92.93752616 -24.25625642 -97.11982154
rfemur  -3.648720026 18.30800056 3.618299961
rtibia  -0 0 41.38710022
rfoot  -0 -12.64239979 12.55539989
rtoes  5.373923086 19.29304026 -105.8922705
lfemur  -35.49010086 -3.769500017 10.0010004
ltibia  -0 0 64.92559814
lfoot  4.688615347e-032 -19.71039963 -3.120909929
ltoes  -4.250644065 -19.5611806 -102.515957
104
root  -3.101022225 35.69399916 8.427622187 117.7020264 -76.56400299 -121.0859985
lowerback  15.96619987 2.705480099 -2.285959959
upperback  5.983339787 2.854589939 0.08095479757
thorax  -2.701630116 1.237470031 0.8691160083
lowerneck  4.341169834 12.68980026 -2.891119957
upperneck  8.350779533 16.40859985 3.676359892
head  1.351050019 8.042759895 1.504529953
lclavicle  0 -9.442270133e-015 7.951389973e-016
lhumerus  -2.341690063 -0.833984971 78.771698
lradius  1.670807896e-031 -3.110827062e-031 118.2399979
lwrist  -7.062250077e-031 3.531125038e-031 76.38860321
lhand  -1.496451383e-031 -27.76390076 20.11240005
lfingers  90 7.125020027 -90
lthumb  89.89689403 5.08795885 91.16245106
rclavicle  0 -9.442270133e-015 7.951389973e-016
rhumerus  -24.00709915 21.27840042 -74.70020294
rradius  1.849461851e-031 3.008045029e-031 58.41519928
rwrist  3.531125038e-031 1.059337512e-030 -57.53250122
rhand  -7.920061211e-032 -33.2840004 9.303460121
rfingers  -90 -7.125020027 -90
rthumb  -92.93752616 -24.25625642 -97.11982154
rfemur  -2.009989977 16.59679985 3.567219973
rtibia  -0 0 39.1230011
rfoot  -0 -11.42000008 13.08720016
rtoes  5.373923086 19.29304026 -105.8922705
lfemur  -36.35089874 -3.940449953 9.656029701
ltibia  -0 0 63.68009949
lfoot  4.65196938e-032 -18.40920067 -3.97487998
ltoes  -4.250644065 -19.5611806 -102.515957
105
root  -2.977511076 35.94133272 8.441088519 110.3300171 -77.58499908 -113.4990234
lowerback  16.25769997 2.896759987 -1.306890011
upperback  6.00041008 3.279469967 0.7253440022
thorax  -2.835890055 1.453799963 0.9043070078
lowerneck  4.278930187 11.63230038 -2.979880095
upperneck  8.81112957 15.03120041 2.911380053
head  1.60303998 7.340769768 1.342689991
lclavicle  0 -9.442270133e-015 7.951389973e-016
lhumerus  -4.712639809 -2.000230074 82.61820221
lradius  1.670156273e-031 -3.111176958e-031 118.2279968
lwrist  -3.531125038e-031 7.062250077e-031 76.14630127
lhand  -1.496451383e-031 -27.76390076 20.11240005
lfingers  90 7.125020027 -90
lthumb  89.89689403 5.08795885 91.16245106
rclavicle  0 -9.442270133e-015 7.951389973e-016
rhumerus  -23.46999931 18.48110008 -75.34190369
rradius  1.901937486e-031 2.97514333e-031 57.41019821
rwrist  3.531125038e-031 -0 -59.01549911
rhand  -7.920061211e-032 -33.2840004 9.303460121
rfingers  -90 -7.125020027 -90
rthumb  -92.93752616 -24.25625642 -97.11982154
rfemur  -0.2586629987 15.01220036 3.432329893
rtibia  -0 0 36.69919968
rfoot  -0 -9.912420273 13.36979961
rtoes  5.373923086 19.29304026 -105.8922705
lfemur  -37.08399963 -4.231679916 9.091210365
ltibia  -0 0 62.3572998
lfoot  4.620949245e-032 -17.21619987 -4.547110081
ltoes  -4.250644065 -19.5611806 -102.515957
